<svg xmlns="http://www.w3.org/2000/svg" width="70" height="33" viewBox="0 0 70 33">
    <defs>
        <linearGradient id="782ftgvh8a" x1="-.15%" x2="100.588%" y1="50.971%" y2="49.665%">
            <stop offset="0%" stop-color="#5DA9DD"/>
            <stop offset=".404%" stop-color="#5DA8DC"/>
            <stop offset="23.44%" stop-color="#3B83C1"/>
            <stop offset="45.56%" stop-color="#1C6CAF"/>
            <stop offset="66.26%" stop-color="#005DA4"/>
            <stop offset="84.99%" stop-color="#00559E"/>
            <stop offset="100%" stop-color="#00529C"/>
        </linearGradient>
        <linearGradient id="vdm8d8227b" x1=".203%" x2="100%" y1="50.492%" y2="49.107%">
            <stop offset="0%" stop-color="#5DA9DD"/>
            <stop offset=".404%" stop-color="#5DA8DC"/>
            <stop offset="23.44%" stop-color="#3B83C1"/>
            <stop offset="45.56%" stop-color="#1C6CAF"/>
            <stop offset="66.26%" stop-color="#005DA4"/>
            <stop offset="84.99%" stop-color="#00559E"/>
            <stop offset="100%" stop-color="#00529C"/>
        </linearGradient>
        <linearGradient id="fjv59ty4nc" x1="-.674%" x2="100.821%" y1="51.12%" y2="49.259%">
            <stop offset="0%" stop-color="#5DA9DD"/>
            <stop offset=".404%" stop-color="#5DA8DC"/>
            <stop offset="23.44%" stop-color="#3B83C1"/>
            <stop offset="45.56%" stop-color="#1C6CAF"/>
            <stop offset="66.26%" stop-color="#005DA4"/>
            <stop offset="84.99%" stop-color="#00559E"/>
            <stop offset="100%" stop-color="#00529C"/>
        </linearGradient>
        <linearGradient id="9rf89y5z2d" x1="1.02%" x2="97.33%" y1="45.9%" y2="50.836%">
            <stop offset="0%" stop-color="#75BEE9"/>
            <stop offset="12.72%" stop-color="#65ADDF"/>
            <stop offset="37.81%" stop-color="#4A93CF"/>
            <stop offset="61.45%" stop-color="#3482C4"/>
            <stop offset="82.85%" stop-color="#2378BE"/>
            <stop offset="100%" stop-color="#1B75BC"/>
        </linearGradient>
        <linearGradient id="iapw791d3e" x1="0%" x2="100%" y1="50%" y2="50%">
            <stop offset="0%" stop-color="#75BEE9"/>
            <stop offset="12.72%" stop-color="#65ADDF"/>
            <stop offset="37.81%" stop-color="#4A93CF"/>
            <stop offset="61.45%" stop-color="#3482C4"/>
            <stop offset="82.85%" stop-color="#2378BE"/>
            <stop offset="100%" stop-color="#1B75BC"/>
        </linearGradient>
    </defs>
    <g fill="none" fill-rule="evenodd">
        <g>
            <g>
                <g>
                    <g>
                        <g>
                            <path fill="#000F47" d="M31.655 12.326s-13.52-1.585-15.893-3.558c0 0 .228-1.36.195-1.812 0 0 14.235 2.88 19.793.841 0 .032-2.502 3.365-4.095 4.53zM22.782 17.115s-6.89-3.17-8.027-5.177c0 0 .552-1.294.682-2.2 0 0 8.906 4.691 13.033 4.756 0 0-4.322 2.459-5.688 2.62zM14.95 19.056s-1.787-3.17-1.885-4.4c0 0 1.203-1.359 1.268-1.78 0 0 2.21 5.08 7.214 5.048 0 0-5.005 1.455-6.597 1.132zM7.02 15.885s5.655-3.59 7.475-6.988c0 0-2.73 2.135-4.68 2.491L7.02 15.885z" transform="translate(-59 -6) translate(59 6) translate(8.45)"/>
                            <path fill="url(#782ftgvh8a)" d="M15.438 9.738c-.13.647-.488 1.877-.683 2.2 2.015.486 9.1 2.394 16.965.388 1.69-1.358 3.055-3.008 4.03-4.497-5.492 2.621-9.913 2.427-13.65 2.621-3.998.032-5.785-.485-6.663-.712z" transform="translate(-59 -6) translate(59 6) translate(8.45)"/>
                            <path fill="url(#vdm8d8227b)" d="M13.065 14.656c1.203.55 5.33 2.135 9.717 2.459 1.95-.55 3.998-1.715 5.688-2.62-6.727.226-12.805-1.23-14.137-1.619-.228.486-.91 1.424-1.268 1.78z" transform="translate(-59 -6) translate(59 6) translate(8.45)"/>
                            <path fill="url(#fjv59ty4nc)" d="M34.483 1.035s.39.712 1.072 1.618C31.07 4.756 24.407 7.44 15.957 6.988c0 .874-.065 1.456-.195 1.812 1.105.291 9.588 2.103 21.58-4.012.553.55 1.17 1.036 1.788 1.36L41.275 0l-6.792 1.035z" transform="translate(-59 -6) translate(59 6) translate(8.45)"/>
                            <path fill="url(#9rf89y5z2d)" d="M9.815 11.356c-2.697.744-5.07.226-5.07.226-1.462-.938-2.47.486-2.47.486-2.73.388-2.047 2.135-2.047 2.135l.26.323c.325-1.1 2.534-.582 2.534-.582 1.723.809 3.023 1.424 3.998 1.941 1.398-1.23 2.308-2.782 2.795-4.53z" transform="translate(-59 -6) translate(59 6) translate(8.45)"/>
                            <path fill="url(#iapw791d3e)" d="M12.35 15.756l-.975-.42c.065-.065.13-.162.227-.227 1.008-1.165 2.113-3.074 2.893-6.212-1.722 1.327-3.315 1.974-3.315 1.974-.032 0-.032.032-.065.032-.52 2.07-1.592 3.947-3.218 5.403.358.162.878.388 1.105.518 0 0 1.008.582 1.593.808 1.462.68 4.192 1.424 4.192 1.424 1.95.388 6.858-1.132 6.858-1.132-3.38-.098-8.58-1.91-9.295-2.168z" transform="translate(-59 -6) translate(59 6) translate(8.45)"/>
                        </g>
                        <g fill="#1B75BC" stroke="#1D75BC" stroke-width=".5">
                            <path d="M0.163 0.356L4.55 0.356 4.55 1.229 1.235 1.229 1.235 3.947 4.322 3.947 4.322 4.821 1.235 4.821 1.235 8.509 0.163 8.509z" transform="translate(-59 -6) translate(59 6) translate(25.675 21.03)"/>
                            <path fill-rule="nonzero" d="M6.435 5.953L5.59 8.509H4.485L7.28.389h1.267l2.795 8.12h-1.137l-.877-2.556H6.435zm2.698-.841l-.813-2.33c-.195-.517-.293-1.003-.423-1.488h-.032c-.13.485-.228.97-.423 1.488L6.63 5.144h2.503v-.032h0z" transform="translate(-59 -6) translate(59 6) translate(25.675 21.03)"/>
                            <path d="M12.545.356h1.072v7.247h3.478v.873h-4.55V.356zM23.497 8.25c-.39.194-1.17.388-2.145.388-2.307 0-4.03-1.456-4.03-4.14 0-2.557 1.723-4.272 4.258-4.272 1.008 0 1.658.227 1.95.356l-.26.842c-.39-.195-.975-.324-1.625-.324-1.918 0-3.185 1.23-3.185 3.365 0 2.006 1.137 3.267 3.12 3.267.65 0 1.3-.13 1.723-.323l.194.841z" transform="translate(-59 -6) translate(59 6) translate(25.675 21.03)"/>
                            <path fill-rule="nonzero" d="M31.558 4.335c0 2.783-1.723 4.27-3.803 4.27-2.177 0-3.672-1.681-3.672-4.14 0-2.589 1.592-4.27 3.77-4.27 2.274.031 3.704 1.714 3.704 4.14zm-6.338.13c0 1.747.943 3.3 2.633 3.3 1.657 0 2.632-1.52 2.632-3.365 0-1.618-.845-3.332-2.6-3.332-1.788 0-2.665 1.617-2.665 3.397z" transform="translate(-59 -6) translate(59 6) translate(25.675 21.03)"/>
                            <path d="M32.922 8.509V.356h1.17l2.6 4.109c.586.938 1.073 1.811 1.463 2.653h.032c-.097-1.1-.13-2.07-.13-3.333V.355h1.008v8.121h-1.072l-2.6-4.14c-.586-.907-1.105-1.845-1.528-2.718h-.032c.065 1.035.065 2.006.065 3.364v3.462h-.976v.065h0z" transform="translate(-59 -6) translate(59 6) translate(25.675 21.03)"/>
                        </g>
                        <path fill="#000F47" d="M6.338 29.053c-.39.194-1.236.453-2.308.453C1.592 29.538 0 27.888 0 25.429c0-2.458 1.69-4.27 4.322-4.27.878 0 1.625.226 2.048.42l-.325 1.1c-.357-.194-.91-.388-1.69-.388-1.853 0-2.86 1.391-2.86 3.041 0 1.844 1.202 3.01 2.795 3.01.845 0 1.397-.195 1.787-.39l.26 1.1zM9.685 19.056c0 .485-.357.906-.943.906-.52 0-.877-.388-.877-.906 0-.485.357-.906.91-.906s.91.388.91.906zM8.06 21.321H9.522V29.345H8.06zM13.715 19.38v1.94h2.113v1.1h-2.113v4.336c0 1.003.293 1.553 1.105 1.553.39 0 .65-.033.845-.097l.065 1.1c-.293.097-.748.194-1.3.194-.682 0-1.235-.227-1.592-.615-.39-.453-.553-1.165-.553-2.103v-4.367H11.05v-1.1h1.268v-1.489l1.397-.453zM18.168 21.32l1.755 4.756c.195.518.39 1.165.52 1.65h.032c.162-.485.325-1.1.52-1.682l1.592-4.723h1.56l-2.21 5.726c-1.04 2.75-1.755 4.141-2.762 5.015-.748.614-1.755.873-2.145.938l-.033-1.197c.358-.13.846-.356 1.3-.712.39-.323.878-.873 1.235-1.617.066-.162.13-.26.13-.356 0-.097-.032-.194-.13-.389l-2.957-7.408h1.593z" transform="translate(-59 -6) translate(59 6)"/>
                    </g>
                    <path fill="#424142" fill-rule="nonzero" d="M70 20.212c0 1.18-.914 2.063-2.083 2.063-1.17 0-2.084-.92-2.084-2.063 0-1.141.914-2.062 2.084-2.062S70 19.07 70 20.213zm-3.692 0c0 .921.658 1.621 1.572 1.621.877 0 1.535-.737 1.535-1.62 0-.921-.658-1.658-1.571-1.658-.841.037-1.536.774-1.536 1.657zm1.28 1.069h-.475v-2.063c.182-.037.438-.074.767-.074.402 0 .548.074.695.148.11.073.182.258.182.442 0 .22-.182.405-.438.478v.037c.182.074.292.221.365.516.073.295.11.442.146.516h-.511c-.073-.074-.11-.258-.146-.516-.037-.221-.147-.332-.44-.332h-.218v.848h.073zm0-1.142h.219c.256 0 .475-.074.475-.295 0-.184-.146-.294-.438-.294-.11 0-.22 0-.256.036v.553z" transform="translate(-59 -6) translate(59 6)"/>
                </g>
            </g>
        </g>
    </g>
</svg>
